# xmcd
#
# Track frame offsets:
#	150
#	16359
#	31649
#	47016
#	64154
#	80418
#	95714
#	111398
#	125430
#	141998
#
# Disc length: 2094 seconds
#
# Revision: 0
# Processed by: cddbd v1.5.1PL2 Copyright (c) Steve Scherf et al.
# Submitted via: EasyCDDAExtractor 4.6.9.1
#
DISCID=85082c0a
DTITLE=The Kinleys - Just Between You and Me
DYEAR=1997
DGENRE=Country
TTITLE0=Just Between You And Me
TTITLE1=Talk To Me
TTITLE2=You Make It Seem So Easy
TTITLE3=(Ooh, Aah) Crazy Kind Of Love Thing
TTITLE4=Please
TTITLE5=The Real Thing
TTITLE6=Takin' Our Own Sweet Time
TTITLE7=Love Rules
TTITLE8=Contradiction
TTITLE9=Dance In The Boat
EXTD=
EXTT0=
EXTT1=
EXTT2=
EXTT3=
EXTT4=
EXTT5=
EXTT6=
EXTT7=
EXTT8=
EXTT9=
PLAYORDER=
